<mxfile host="app.diagrams.net" modified="2023-06-28T02:06:41.028Z" agent="Mozilla/5.0 (Windows NT 10.0; Win64; x64) AppleWebKit/537.36 (KHTML, like Gecko) Chrome/113.0.0.0 Safari/537.36" etag="_21NDMzRuF6EkH_OhdWw" version="21.3.6" type="github">
  <diagram name="第 1 页" id="LOQ-rImNGxbMYktJ3IUX">
    <mxGraphModel dx="979" dy="543" grid="1" gridSize="10" guides="1" tooltips="1" connect="1" arrows="1" fold="1" page="1" pageScale="1" pageWidth="827" pageHeight="1169" math="0" shadow="0">
      <root>
        <mxCell id="0" />
        <mxCell id="1" parent="0" />
        <mxCell id="SReuTF12Yw2OU4Fin3kD-1" value="业务方" style="shape=umlLifeline;perimeter=lifelinePerimeter;whiteSpace=wrap;html=1;container=1;dropTarget=0;collapsible=0;recursiveResize=0;outlineConnect=0;portConstraint=eastwest;newEdgeStyle={&quot;edgeStyle&quot;:&quot;elbowEdgeStyle&quot;,&quot;elbow&quot;:&quot;vertical&quot;,&quot;curved&quot;:0,&quot;rounded&quot;:0};" vertex="1" parent="1">
          <mxGeometry x="191" y="40" width="100" height="520" as="geometry" />
        </mxCell>
        <mxCell id="SReuTF12Yw2OU4Fin3kD-16" value="" style="html=1;points=[];perimeter=orthogonalPerimeter;outlineConnect=0;targetShapes=umlLifeline;portConstraint=eastwest;newEdgeStyle={&quot;edgeStyle&quot;:&quot;elbowEdgeStyle&quot;,&quot;elbow&quot;:&quot;vertical&quot;,&quot;curved&quot;:0,&quot;rounded&quot;:0};" vertex="1" parent="SReuTF12Yw2OU4Fin3kD-1">
          <mxGeometry x="44" y="375" width="10" height="40" as="geometry" />
        </mxCell>
        <mxCell id="SReuTF12Yw2OU4Fin3kD-17" value="VirtualDisplay.resize()" style="html=1;align=left;spacingLeft=2;endArrow=block;rounded=0;edgeStyle=orthogonalEdgeStyle;curved=0;rounded=0;" edge="1" target="SReuTF12Yw2OU4Fin3kD-16" parent="SReuTF12Yw2OU4Fin3kD-1">
          <mxGeometry relative="1" as="geometry">
            <mxPoint x="49" y="355" as="sourcePoint" />
            <Array as="points">
              <mxPoint x="79" y="385" />
            </Array>
          </mxGeometry>
        </mxCell>
        <mxCell id="SReuTF12Yw2OU4Fin3kD-21" value="" style="html=1;points=[];perimeter=orthogonalPerimeter;outlineConnect=0;targetShapes=umlLifeline;portConstraint=eastwest;newEdgeStyle={&quot;edgeStyle&quot;:&quot;elbowEdgeStyle&quot;,&quot;elbow&quot;:&quot;vertical&quot;,&quot;curved&quot;:0,&quot;rounded&quot;:0};" vertex="1" parent="SReuTF12Yw2OU4Fin3kD-1">
          <mxGeometry x="46" y="182" width="10" height="40" as="geometry" />
        </mxCell>
        <mxCell id="SReuTF12Yw2OU4Fin3kD-22" value="pauseVirtualDisplay()" style="html=1;align=left;spacingLeft=2;endArrow=block;rounded=0;edgeStyle=orthogonalEdgeStyle;curved=0;rounded=0;" edge="1" target="SReuTF12Yw2OU4Fin3kD-21" parent="SReuTF12Yw2OU4Fin3kD-1">
          <mxGeometry relative="1" as="geometry">
            <mxPoint x="51" y="162" as="sourcePoint" />
            <Array as="points">
              <mxPoint x="81" y="192" />
            </Array>
          </mxGeometry>
        </mxCell>
        <mxCell id="SReuTF12Yw2OU4Fin3kD-2" value="投屏框架" style="shape=umlLifeline;perimeter=lifelinePerimeter;whiteSpace=wrap;html=1;container=1;dropTarget=0;collapsible=0;recursiveResize=0;outlineConnect=0;portConstraint=eastwest;newEdgeStyle={&quot;edgeStyle&quot;:&quot;elbowEdgeStyle&quot;,&quot;elbow&quot;:&quot;vertical&quot;,&quot;curved&quot;:0,&quot;rounded&quot;:0};" vertex="1" parent="1">
          <mxGeometry x="421" y="40" width="100" height="520" as="geometry" />
        </mxCell>
        <mxCell id="SReuTF12Yw2OU4Fin3kD-3" value="1、开启镜像投屏" style="text;html=1;align=center;verticalAlign=middle;resizable=0;points=[];autosize=1;strokeColor=none;fillColor=none;" vertex="1" parent="1">
          <mxGeometry x="114" y="100" width="110" height="30" as="geometry" />
        </mxCell>
        <mxCell id="SReuTF12Yw2OU4Fin3kD-4" value="MediaProjection.createVirtualDisplay()" style="html=1;verticalAlign=bottom;endArrow=block;edgeStyle=elbowEdgeStyle;elbow=vertical;curved=0;rounded=0;" edge="1" parent="1">
          <mxGeometry width="80" relative="1" as="geometry">
            <mxPoint x="246" y="120" as="sourcePoint" />
            <mxPoint x="466.5" y="119.75862068965523" as="targetPoint" />
          </mxGeometry>
        </mxCell>
        <mxCell id="SReuTF12Yw2OU4Fin3kD-6" value="原生框架完成VirtualDisplay虚拟屏创建" style="text;html=1;align=center;verticalAlign=middle;resizable=0;points=[];autosize=1;strokeColor=none;fillColor=none;" vertex="1" parent="1">
          <mxGeometry x="490" y="104" width="230" height="30" as="geometry" />
        </mxCell>
        <mxCell id="SReuTF12Yw2OU4Fin3kD-7" value="VirtualDisplay" style="html=1;verticalAlign=bottom;endArrow=open;dashed=1;endSize=8;edgeStyle=elbowEdgeStyle;elbow=vertical;curved=0;rounded=0;" edge="1" parent="1">
          <mxGeometry relative="1" as="geometry">
            <mxPoint x="464" y="160" as="sourcePoint" />
            <mxPoint x="244.81034482758628" y="159.75862068965523" as="targetPoint" />
          </mxGeometry>
        </mxCell>
        <mxCell id="SReuTF12Yw2OU4Fin3kD-8" value="startMirageWindowMode(intent, options)" style="html=1;verticalAlign=bottom;endArrow=block;edgeStyle=elbowEdgeStyle;elbow=vertical;curved=0;rounded=0;" edge="1" parent="1">
          <mxGeometry width="80" relative="1" as="geometry">
            <mxPoint x="247" y="281" as="sourcePoint" />
            <mxPoint x="467" y="281" as="targetPoint" />
          </mxGeometry>
        </mxCell>
        <mxCell id="SReuTF12Yw2OU4Fin3kD-9" value="2、切换后台投屏" style="text;html=1;align=center;verticalAlign=middle;resizable=0;points=[];autosize=1;strokeColor=none;fillColor=none;" vertex="1" parent="1">
          <mxGeometry x="114" y="180" width="110" height="30" as="geometry" />
        </mxCell>
        <mxCell id="SReuTF12Yw2OU4Fin3kD-10" value="&lt;div style=&quot;text-align: left;&quot;&gt;&lt;span style=&quot;background-color: initial;&quot;&gt;1、投屏框架解析参数，完成OverlayDisplay虚拟屏创建&lt;/span&gt;&lt;/div&gt;&lt;div style=&quot;text-align: left;&quot;&gt;&lt;span style=&quot;background-color: initial;&quot;&gt;2、将两块虚拟屏进行关联，对旋转尺寸等进行计算&lt;/span&gt;&lt;/div&gt;&lt;div style=&quot;text-align: left;&quot;&gt;&lt;span style=&quot;background-color: initial;&quot;&gt;3、解析参数，根据不同投屏模式选择不同移栈策略&lt;/span&gt;&lt;/div&gt;" style="text;html=1;align=center;verticalAlign=middle;resizable=0;points=[];autosize=1;strokeColor=none;fillColor=none;" vertex="1" parent="1">
          <mxGeometry x="495" y="250" width="310" height="60" as="geometry" />
        </mxCell>
        <mxCell id="SReuTF12Yw2OU4Fin3kD-11" value="displayId" style="html=1;verticalAlign=bottom;endArrow=open;dashed=1;endSize=8;edgeStyle=elbowEdgeStyle;elbow=vertical;curved=0;rounded=0;" edge="1" parent="1">
          <mxGeometry relative="1" as="geometry">
            <mxPoint x="466.19" y="318.9" as="sourcePoint" />
            <mxPoint x="247.00034482758628" y="318.6586206896552" as="targetPoint" />
          </mxGeometry>
        </mxCell>
        <mxCell id="SReuTF12Yw2OU4Fin3kD-12" value="3、切换回镜像投屏" style="text;html=1;align=center;verticalAlign=middle;resizable=0;points=[];autosize=1;strokeColor=none;fillColor=none;" vertex="1" parent="1">
          <mxGeometry x="110" y="350" width="130" height="30" as="geometry" />
        </mxCell>
        <mxCell id="SReuTF12Yw2OU4Fin3kD-13" value="stopMirageWindowMode(options)" style="html=1;verticalAlign=bottom;endArrow=block;edgeStyle=elbowEdgeStyle;elbow=vertical;curved=0;rounded=0;" edge="1" parent="1">
          <mxGeometry width="80" relative="1" as="geometry">
            <mxPoint x="248" y="365.24" as="sourcePoint" />
            <mxPoint x="468" y="365.24" as="targetPoint" />
          </mxGeometry>
        </mxCell>
        <mxCell id="SReuTF12Yw2OU4Fin3kD-14" value="&lt;div style=&quot;text-align: left;&quot;&gt;&lt;span style=&quot;background-color: initial;&quot;&gt;1、解析参数，销毁后台投屏的OverlayDisplay虚拟屏&lt;/span&gt;&lt;/div&gt;&lt;div style=&quot;text-align: left;&quot;&gt;&lt;span style=&quot;background-color: initial;&quot;&gt;2、解析参数，根据不同投屏模式选择不同任务栈处理策略&lt;/span&gt;&lt;/div&gt;" style="text;html=1;align=center;verticalAlign=middle;resizable=0;points=[];autosize=1;strokeColor=none;fillColor=none;" vertex="1" parent="1">
          <mxGeometry x="490" y="346" width="330" height="40" as="geometry" />
        </mxCell>
        <mxCell id="SReuTF12Yw2OU4Fin3kD-18" value="resize VirtualDisplay&lt;br&gt;重新设置尺寸等信息" style="text;html=1;align=center;verticalAlign=middle;resizable=0;points=[];autosize=1;strokeColor=none;fillColor=none;" vertex="1" parent="1">
          <mxGeometry x="113" y="400" width="130" height="40" as="geometry" />
        </mxCell>
        <mxCell id="SReuTF12Yw2OU4Fin3kD-24" value="4、关闭镜像投屏" style="text;html=1;align=center;verticalAlign=middle;resizable=0;points=[];autosize=1;strokeColor=none;fillColor=none;" vertex="1" parent="1">
          <mxGeometry x="114" y="490" width="110" height="30" as="geometry" />
        </mxCell>
        <mxCell id="SReuTF12Yw2OU4Fin3kD-25" value="VirtualDisplay.release" style="html=1;verticalAlign=bottom;endArrow=block;edgeStyle=elbowEdgeStyle;elbow=vertical;curved=0;rounded=0;" edge="1" parent="1">
          <mxGeometry width="80" relative="1" as="geometry">
            <mxPoint x="244" y="521.96" as="sourcePoint" />
            <mxPoint x="464" y="521.96" as="targetPoint" />
          </mxGeometry>
        </mxCell>
        <mxCell id="SReuTF12Yw2OU4Fin3kD-26" value="销毁镜像投屏VirtualDisplay虚拟屏" style="text;html=1;align=center;verticalAlign=middle;resizable=0;points=[];autosize=1;strokeColor=none;fillColor=none;" vertex="1" parent="1">
          <mxGeometry x="495" y="505" width="200" height="30" as="geometry" />
        </mxCell>
      </root>
    </mxGraphModel>
  </diagram>
</mxfile>
